<svg id="Layer_1" data-name="Layer 1" xmlns="http://www.w3.org/2000/svg" viewBox="0 0 205.9 363.12"><defs><style>.cls-1{fill:#fff;}.cls-1,.cls-2{stroke:#000;stroke-miterlimit:10;}</style></defs><rect class="cls-1" x="18.07" y="96.15" width="173.59" height="174.42" rx="5.28"/><path class="cls-1" d="M185.85,162.29c-4.57,2.56-9.42,4.24-16.64,8.65-25.81,15.78-29.63,44.95-31.89,53.64-2.86,10.91-8.5,32-.29,56.17,2.39,7,5.77,22.31,11.86,22.58,7.91.34,15.68-24.58,19.19-35.85,6.1-19.56,7.06-33.67,9.6-33.59s3.82,13.12,3.95,14.4c2,19-2.26,32.75-4.8,44-3.79,16.83-4.06,29.09-4.51,49.68-.53,23.72-.8,47.39,11.57,53.63.74.38,4.85,2.58,9.31,1.41,5-1.31,8.05-6.2,12.71-17.5,6.6-16,6.16-20,9.88-27.66,3-6.09,10.77-22.51,19.19-22,7,.41,13.77,14.95,27.38,44a105.57,105.57,0,0,0,7.06,11.85c6.21,9.38,8.88,11,11.29,11.57,4.63,1.07,8.93-1.73,10.16-2.54,13.14-8.59,11.15-37.19,9.6-56.73-1.6-20.1-4.3-25.65-7.34-50.81A183.38,183.38,0,0,1,290,248.57c.27-11.66,1.59-12.43,2.05-12.49,1-.12,2,2.41,2.54,3.7,4.67,11.57,7.16,24.64,8.11,29.25,2.75,13.29,5.91,20.15,7.48,23.29,3.17,6.32,6.15,12.28,9.88,12.28,6.79,0,11.8-19.76,13.06-24.7,2.77-10.91,8.15-32.09.84-57.79-10.3-36.27-38.3-55-45.93-59.7C254.27,161.11,219.63,163.59,185.85,162.29Z" transform="translate(-132.26 -34.95)"/><path class="cls-1" d="M191.82,155.78l-6,6.51a59.78,59.78,0,0,0,12.76,13.44,62.24,62.24,0,0,0,26.19,11.55c7.37,1.55,21.76,4.58,37.75-2.24a57.11,57.11,0,0,0,25.85-22.58l-9.48-6.68Z" transform="translate(-132.26 -34.95)"/><rect class="cls-1" x="27.92" y="51.69" width="25.68" height="44.46" rx="4"/><rect class="cls-1" x="158.04" y="52.46" width="25.68" height="44.46" rx="4"/><ellipse class="cls-1" cx="105.04" cy="69.44" rx="68.25" ry="68.94"/><ellipse class="cls-2" cx="107.37" cy="76.93" rx="55.49" ry="45.76"/><path class="cls-1" d="M197.57,100.94,210,104.73a29.92,29.92,0,0,1,4-7.07,32,32,0,0,1,16.38-11q-.78-5.43-1.55-10.86a35.82,35.82,0,0,0-16.38,5.52A36.77,36.77,0,0,0,197.57,100.94Z" transform="translate(-132.26 -34.95)"/><line class="cls-1" x1="84.45" y1="3.77" x2="85.31" y2="34.45"/><line class="cls-1" x1="129.08" y1="3.77" x2="129.08" y2="34.45"/><rect class="cls-1" x="60.8" y="168.77" width="88.91" height="80.87" rx="14.3"/></svg>