<svg xmlns="http://www.w3.org/2000/svg" viewBox="0 0 578.58 293.07"><defs><style>.cls-1{fill:#f9f9fa;stroke:#070808;}.cls-1,.cls-10{stroke-miterlimit:10;}.cls-2{fill:#c4c4c4;}.cls-3{fill:#eaeaea;}.cls-4{fill:#4378bc;}.cls-5{fill:#003d47;}.cls-6{fill:#18164d;}.cls-7{fill:#9cd2f2;}.cls-8{fill:#aeadae;}.cls-9{fill:#4180c2;}.cls-10{fill:#fff;stroke:#000;}</style></defs><g id="Layer_1" data-name="Layer 1"><rect class="cls-1" x="296.61" y="405.15" width="3.63" height="48.9" transform="translate(586.36 695.09) rotate(-179.71)"/><rect class="cls-1" x="313.71" y="403.45" width="3.63" height="48.9" transform="translate(316.18 -269.26) rotate(37.38)"/><rect class="cls-1" x="279.27" y="403.28" width="3.63" height="48.9" transform="translate(757.3 426.91) rotate(142.09)"/><path class="cls-2" d="M238.15,411.25c8-7.87,31.27-13.47,58.71-13.34s50.65,6,58.58,13.93Z" transform="translate(-8.35 -165.59)"/><rect class="cls-3" x="356.82" y="187.36" width="230.09" height="53.12" rx="5.62" transform="translate(935.54 261.91) rotate(179.96)"/><rect class="cls-3" x="355.34" y="258.5" width="231.41" height="53.12" rx="5.48" transform="translate(932.32 406.87) rotate(-179.71)"/><rect class="cls-4" x="361.99" y="190.57" width="221.06" height="47.13" transform="translate(936.84 262.35) rotate(179.96)"/><rect class="cls-2" x="260.66" y="196.45" width="77.51" height="115.28" rx="3.62" transform="translate(589.22 344.09) rotate(-179.71)"/><rect class="cls-5" x="268.21" y="311.73" width="61.58" height="5.16" rx="1.01" transform="translate(588.09 464.53) rotate(-179.71)"/><rect class="cls-5" x="268.08" y="338.76" width="61.58" height="5.16" rx="1.01" transform="translate(587.68 518.57) rotate(-179.71)"/><rect class="cls-5" x="277.93" y="311.73" width="42.03" height="28.23" rx="1.01" transform="matrix(-1, 0, 0, -1, 587.91, 487.6)"/><rect class="cls-2" x="259.95" y="343.92" width="77.51" height="61.24" rx="3.62" transform="translate(587.18 584.97) rotate(-179.71)"/><rect class="cls-5" x="259.81" y="402.22" width="77.51" height="0.99" transform="translate(586.76 641.31) rotate(-179.71)"/><rect class="cls-5" x="260.06" y="351.18" width="77.51" height="1.79" transform="translate(587.52 540.04) rotate(-179.71)"/><rect class="cls-5" x="319.91" y="351.29" width="1.38" height="51.04" transform="translate(630.96 589.62) rotate(-179.71)"/><rect class="cls-5" x="277.13" y="351.07" width="1.38" height="51.04" transform="translate(545.41 588.98) rotate(-179.71)"/><rect class="cls-6" x="554.64" y="190.5" width="28.39" height="22.13" transform="translate(1129.48 237.14) rotate(179.96)"/><rect class="cls-6" x="554.66" y="215.5" width="28.39" height="22.13" transform="translate(1129.53 287.14) rotate(179.96)"/><rect class="cls-6" x="522.69" y="190.53" width="28.39" height="22.13" transform="translate(1065.58 237.21) rotate(179.96)"/><rect class="cls-6" x="522.71" y="215.53" width="28.39" height="22.13" transform="translate(1065.63 287.21) rotate(179.96)"/><rect class="cls-6" x="490.4" y="190.55" width="28.39" height="22.13" transform="translate(1000.98 237.28) rotate(179.96)"/><rect class="cls-6" x="490.41" y="215.55" width="28.39" height="22.13" transform="translate(1001.03 287.28) rotate(179.96)"/><rect class="cls-6" x="458.45" y="190.57" width="28.39" height="22.13" transform="translate(937.08 237.35) rotate(179.96)"/><rect class="cls-6" x="458.47" y="215.57" width="28.39" height="22.13" transform="translate(937.13 287.35) rotate(179.96)"/><rect class="cls-6" x="425.61" y="190.6" width="28.39" height="22.13" transform="translate(871.4 237.42) rotate(179.96)"/><rect class="cls-6" x="425.63" y="215.6" width="28.39" height="22.13" transform="translate(871.46 287.42) rotate(179.96)"/><rect class="cls-6" x="393.66" y="190.62" width="28.39" height="22.13" transform="translate(807.5 237.49) rotate(179.96)"/><rect class="cls-6" x="393.68" y="215.62" width="28.39" height="22.13" transform="translate(807.56 287.49) rotate(179.96)"/><rect class="cls-6" x="361.98" y="190.64" width="28.39" height="22.13" transform="translate(744.15 237.55) rotate(179.96)"/><rect class="cls-6" x="362" y="215.64" width="28.39" height="22.13" transform="translate(744.2 287.55) rotate(179.96)"/><rect class="cls-4" x="361.96" y="261.5" width="221.06" height="47.13" transform="translate(935.21 406.89) rotate(-179.71)"/><rect class="cls-6" x="554.69" y="261.98" width="28.39" height="22.13" transform="translate(1128.06 383.33) rotate(-179.71)"/><rect class="cls-6" x="554.57" y="286.98" width="28.39" height="22.13" transform="translate(1127.68 433.33) rotate(-179.71)"/><rect class="cls-6" x="522.74" y="261.82" width="28.39" height="22.13" transform="translate(1064.16 382.85) rotate(-179.71)"/><rect class="cls-6" x="522.62" y="286.82" width="28.39" height="22.13" transform="translate(1063.79 432.85) rotate(-179.71)"/><rect class="cls-6" x="490.44" y="261.66" width="28.39" height="22.13" transform="translate(999.57 382.37) rotate(-179.71)"/><rect class="cls-6" x="490.32" y="286.66" width="28.39" height="22.13" transform="translate(999.19 432.37) rotate(-179.71)"/><rect class="cls-6" x="458.49" y="261.5" width="28.39" height="22.13" transform="translate(935.67 381.89) rotate(-179.71)"/><rect class="cls-6" x="458.37" y="286.5" width="28.39" height="22.13" transform="translate(935.29 431.89) rotate(-179.71)"/><rect class="cls-6" x="425.66" y="261.34" width="28.39" height="22.13" transform="translate(869.99 381.4) rotate(-179.71)"/><rect class="cls-6" x="425.53" y="286.34" width="28.39" height="22.13" transform="translate(869.62 431.4) rotate(-179.71)"/><rect class="cls-6" x="393.71" y="261.18" width="28.39" height="22.13" transform="translate(806.09 380.92) rotate(-179.71)"/><rect class="cls-6" x="393.58" y="286.18" width="28.39" height="22.13" transform="translate(805.72 430.92) rotate(-179.71)"/><rect class="cls-6" x="362.03" y="261.02" width="28.39" height="22.13" transform="translate(742.74 380.45) rotate(-179.71)"/><rect class="cls-6" x="361.9" y="286.02" width="28.39" height="22.13" transform="translate(742.36 430.45) rotate(-179.71)"/><rect class="cls-7" x="338.19" y="244.23" width="201.9" height="10.89" transform="translate(868.69 335.94) rotate(-179.71)"/><rect class="cls-7" x="535.44" y="190.53" width="4.67" height="117.35" transform="translate(1067.37 332.43) rotate(179.96)"/><rect class="cls-7" x="405.55" y="190.62" width="4.67" height="117.35" transform="translate(807.61 332.71) rotate(179.96)"/><rect class="cls-3" x="1.74" y="21.77" width="231.93" height="53.12" rx="5.61"/><rect class="cls-3" x="0.02" y="92.21" width="233.25" height="53.12" rx="4.81"/><rect class="cls-4" x="7.45" y="24.98" width="221.06" height="47.13"/><rect class="cls-6" x="7.44" y="25.05" width="28.39" height="22.13"/><rect class="cls-6" x="7.46" y="50.05" width="28.39" height="22.13"/><rect class="cls-6" x="39.39" y="25.03" width="28.39" height="22.13"/><rect class="cls-6" x="39.41" y="50.03" width="28.39" height="22.13"/><rect class="cls-6" x="71.69" y="25.01" width="28.39" height="22.13"/><rect class="cls-6" x="71.7" y="50.01" width="28.39" height="22.13"/><rect class="cls-6" x="103.63" y="24.98" width="28.39" height="22.13"/><rect class="cls-6" x="103.65" y="49.98" width="28.39" height="22.13"/><rect class="cls-6" x="136.47" y="24.96" width="28.39" height="22.13"/><rect class="cls-6" x="136.49" y="49.96" width="28.39" height="22.13"/><rect class="cls-6" x="168.42" y="24.94" width="28.39" height="22.13"/><rect class="cls-6" x="168.44" y="49.94" width="28.39" height="22.13"/><rect class="cls-6" x="200.1" y="24.91" width="28.39" height="22.13"/><rect class="cls-6" x="200.12" y="49.91" width="28.39" height="22.13"/><rect class="cls-4" x="7.36" y="95.21" width="221.06" height="47.13"/><rect class="cls-6" x="7.35" y="95.28" width="28.39" height="22.13"/><rect class="cls-6" x="7.37" y="120.28" width="28.39" height="22.13"/><rect class="cls-6" x="39.3" y="95.26" width="28.39" height="22.13"/><rect class="cls-6" x="39.32" y="120.26" width="28.39" height="22.13"/><rect class="cls-6" x="71.6" y="95.23" width="28.39" height="22.13"/><rect class="cls-6" x="71.62" y="120.23" width="28.39" height="22.13"/><rect class="cls-6" x="103.55" y="95.21" width="28.39" height="22.13"/><rect class="cls-6" x="103.57" y="120.21" width="28.39" height="22.13"/><rect class="cls-6" x="136.39" y="95.19" width="28.39" height="22.13"/><rect class="cls-6" x="136.41" y="120.19" width="28.39" height="22.13"/><rect class="cls-6" x="168.34" y="95.16" width="28.39" height="22.13"/><rect class="cls-6" x="168.36" y="120.16" width="28.39" height="22.13"/><rect class="cls-6" x="200.02" y="95.14" width="28.39" height="22.13"/><rect class="cls-6" x="200.04" y="120.14" width="28.39" height="22.13"/><rect class="cls-7" x="50.44" y="78.08" width="201.9" height="10.89"/><rect class="cls-7" x="50.44" y="25.03" width="4.67" height="117.35"/><rect class="cls-7" x="180.32" y="24.94" width="4.67" height="117.35"/><rect class="cls-5" x="268.83" y="183.43" width="61.58" height="13.02" rx="1.01" transform="translate(589.95 215.79) rotate(-179.71)"/><rect class="cls-5" x="260.48" y="294.26" width="77.51" height="4.05" transform="translate(588.64 428.47) rotate(-179.71)"/><rect class="cls-8" x="261.06" y="165.75" width="77.51" height="17.72" rx="6.26" transform="translate(590.4 185.12) rotate(-179.71)"/><rect class="cls-3" x="260.62" y="244.69" width="19.64" height="49.42" transform="translate(531.17 374.56) rotate(-179.71)"/><circle class="cls-5" cx="262.02" cy="116.75" r="4.41"/><circle class="cls-5" cx="262.09" cy="103.16" r="4.41"/><circle class="cls-5" cx="262.16" cy="89.56" r="4.41"/><rect class="cls-5" x="301.53" y="268.13" width="50.52" height="1.79" transform="translate(47.79 428.89) rotate(-89.71)"/><rect class="cls-5" x="280.33" y="257.62" width="45.65" height="4.01" transform="translate(596.66 355.17) rotate(-179.71)"/><rect class="cls-3" x="304.31" y="207.07" width="27.95" height="36.65" transform="translate(627.09 286.79) rotate(-179.71)"/><rect class="cls-5" x="260.86" y="213.45" width="43.35" height="2.99" transform="translate(555.65 265.7) rotate(-179.71)"/><rect class="cls-5" x="256.47" y="229.64" width="28.32" height="1.79" transform="translate(30.4 334.42) rotate(-89.71)"/><rect class="cls-9" x="307.64" y="210.06" width="21.16" height="19.29" transform="translate(626.99 275.4) rotate(-179.71)"/><rect class="cls-5" x="332.31" y="213.63" width="6.06" height="2.99" transform="translate(661.25 266.34) rotate(-179.71)"/><rect class="cls-5" x="322.37" y="232.45" width="6.17" height="8.58" transform="translate(641.38 309.51) rotate(-179.71)"/><rect class="cls-5" x="314.96" y="232.41" width="6.17" height="8.58" transform="translate(626.56 309.4) rotate(-179.71)"/><rect class="cls-5" x="307.55" y="232.37" width="6.17" height="8.58" transform="translate(611.74 309.28) rotate(-179.71)"/><circle class="cls-10" cx="289.98" cy="284.28" r="8.29"/></g></svg>