<svg xmlns="http://www.w3.org/2000/svg" viewBox="0 0 538 199.9"><defs><style>.cls-1{fill:#40403f;}.cls-2{fill:#fff;}.cls-3{fill:#114;}.cls-4{fill:#515251;}.cls-5{fill:#e0e0e0;}</style></defs><g id="Layer_1" data-name="Layer 1"><path class="cls-1" d="M501.9,444.78a93.45,93.45,0,0,0,29.8,2.69c2.32-.17,4.55-.43,6.68-.74a56.74,56.74,0,0,0,.47-13.28,57.4,57.4,0,0,0-6-21.16,72.35,72.35,0,0,0-34.16,13.83Q500.27,435.45,501.9,444.78Z" transform="translate(-30.86 -263.34)"/><path class="cls-1" d="M492.23,406.64a93.24,93.24,0,0,0,29.9-1.2c2.28-.47,4.45-1,6.53-1.6a56.7,56.7,0,0,0-10-33.43,72.52,72.52,0,0,0-32.08,18.15Z" transform="translate(-30.86 -263.34)"/></g><g id="Layer_2" data-name="Layer 2"><path class="cls-2" d="M65.06,422.05q-.32-5.15-.65-10.3c10.74-4.37,19.2-7.72,24.6-9.84,11.76-4.62,14.42-5.55,18.66-8.54A153.15,153.15,0,0,0,122,381.21c1.26-1.18,2.42-3.39,5.1-4.92a16.34,16.34,0,0,1,9.75-1.77H484.94l13,75.11L122.15,455.2Z" transform="translate(-30.86 -263.34)"/><path d="M64,412.49v7.06l61.46-5.76,4.08,28.41,196-8v8l136.18,3.16,32.87-7.25-7-30.35h3.06a54.08,54.08,0,0,1,1.54,5.57,17.64,17.64,0,0,1,5.71,6,17.45,17.45,0,0,1,1.43,3.23,42.12,42.12,0,0,1,3.16,12.5c.41,4.32.71,6.47-.13,9.19a17.79,17.79,0,0,1-4.46,7,27.52,27.52,0,0,1-10.44,7,28.65,28.65,0,0,1-11.21,1.81l-371.87-2c-5.26-.13-11.61-.43-18.8-1.12-14.42-1.37-21.54-3.24-35.64-7-4.82-1.27-11.1-3.06-15.88-8.63-2-2.29-3-3.39-3.2-4.88-.35-2.81,1.56-6.1,9.05-11.55A90.73,90.73,0,0,1,64,412.49Z" transform="translate(-30.86 -263.34)"/><path class="cls-3" d="M107.26,393.66a19.3,19.3,0,0,1,4.54,1.06,12.81,12.81,0,0,1,6,4.95,61.76,61.76,0,0,0,9.61-1.95c6.22-1.8,7.13-3.14,7.45-4,.45-1.24.08-2.43-.63-4.67-.53-1.68-1.27-4.05-2.92-4.45-.64-.16-1,.08-2.3.49a25.13,25.13,0,0,1-5.22.9,12.5,12.5,0,0,1-5.71-1.11A104.81,104.81,0,0,1,107.26,393.66Z" transform="translate(-30.86 -263.34)"/><polygon class="cls-2" points="497.66 87.52 535.91 9.8 497.66 7.73 401.72 102.7 396.15 113.42 452.69 109.94 497.66 87.52"/><path d="M428.54,373.28a37,37,0,0,1,3-9.47,37.93,37.93,0,0,1,11.32-13.93l78.35-77.42a19.81,19.81,0,0,1,10-7.8c1.21-.4,2.25-.61,6.5-.92,13.64-1,13.35.3,24.32-.19,3.62-.16,5.16-.37,6.12.74,2.31,2.67-1.64,9.59-3.52,12.63l-8.36-.19H527.5l-99,96.55" transform="translate(-30.86 -263.34)"/><polygon points="499.07 86.27 474.85 85.57 466.03 78.89 520.38 2.72 525.67 2.72 476.24 78.75 478.46 80.83 501.44 82.09 499.07 86.27"/></g><g id="Layer_3" data-name="Layer 3"><path class="cls-4" d="M158,447.59c6.07.07,124.7-.06,287.6-.18a131.07,131.07,0,0,1,32.95,2,106.19,106.19,0,0,1,20.61,6.12c5.13,2,12.3,4.83,12,6.41-.51,2.46-18.94.63-22.56.28-13.61-1.31,14.71,2.38-173.92-2.37-84.37-2.12-116.55-3.53-158-7.1-5.24-.45-9.56-.85-12.46-1.11-.79-.38-1.66-.89-1.6-1.4.08-.81,2.5-1.17,4.66-1.46A105.8,105.8,0,0,1,158,447.59Z" transform="translate(-30.86 -263.34)"/><path class="cls-5" d="M417.17,383.42v20.19a24.52,24.52,0,0,0,7.1,5.29c1.47.73,3,1.28,7.66,2.37,2.77.65,6.59,1.48,11.23,2.28a173,173,0,0,0,49.69-1.16c4.4-.75,8.6-1.65,12.6-2.65a13.12,13.12,0,0,1,2.72-5.22c1.26-1.47,2-1.34,2.57-2.3,1.64-2.88-2.11-8.13-4.27-10.49a21.58,21.58,0,0,0-9.93-6,40.81,40.81,0,0,1-5-15.51c-13-.66-24-.52-32.31-.18-15.05.6-21,1.81-26.83,4.18A56.29,56.29,0,0,0,417.17,383.42Z" transform="translate(-30.86 -263.34)"/><rect x="141.91" y="139.88" width="6.21" height="1.68"/><rect x="143.71" y="137.22" width="2.6" height="4.33"/><rect x="166.99" y="139.88" width="6.21" height="1.68"/><rect x="168.8" y="137.22" width="2.6" height="4.33"/><rect x="191.21" y="139.82" width="6.21" height="1.68"/><rect x="193.01" y="137.16" width="2.6" height="4.33"/><rect x="214.12" y="139.82" width="6.21" height="1.68"/><rect x="215.92" y="137.16" width="2.6" height="4.33"/><rect x="233.16" y="140.13" width="6.21" height="1.68"/><rect x="234.96" y="137.47" width="2.6" height="4.33"/><rect x="257.15" y="139.88" width="6.21" height="1.68"/><rect x="258.95" y="137.22" width="2.6" height="4.33"/></g></svg>